<svg xmlns="http://www.w3.org/2000/svg" xmlns:xlink="http://www.w3.org/1999/xlink" width="160" zoomAndPan="magnify" viewBox="0 0 120 119.999999" height="160" preserveAspectRatio="xMidYMid meet" version="1.0"><defs><clipPath id="df7818f5e5"><path d="M 0.121094 0.00390625 L 77.699219 0.00390625 L 77.699219 60.003906 L 0.121094 60.003906 Z M 0.121094 0.00390625 " clip-rule="nonzero"/></clipPath><clipPath id="9bbe640c45"><path d="M 77.699219 30.003906 L 0.261719 60.003906 L 0.261719 0.00390625 Z M 77.699219 30.003906 " clip-rule="nonzero"/></clipPath><clipPath id="d31fd435ba"><path d="M 0.121094 0.00390625 L 77.699219 0.00390625 L 77.699219 60.003906 L 0.121094 60.003906 Z M 0.121094 0.00390625 " clip-rule="nonzero"/></clipPath><clipPath id="069b00db3e"><path d="M 77.699219 30.003906 L 0.261719 60.003906 L 0.261719 0.00390625 Z M 77.699219 30.003906 " clip-rule="nonzero"/></clipPath><clipPath id="7a5e761753"><rect x="0" width="78" y="0" height="61"/></clipPath><clipPath id="e133933ffc"><path d="M 0.121094 60.003906 L 77.699219 60.003906 L 77.699219 120 L 0.121094 120 Z M 0.121094 60.003906 " clip-rule="nonzero"/></clipPath><clipPath id="039d14d2c7"><path d="M 77.699219 90.003906 L 0.261719 120.003906 L 0.261719 60.003906 Z M 77.699219 90.003906 " clip-rule="nonzero"/></clipPath><clipPath id="1e0f8e20f9"><path d="M 0.121094 0.00390625 L 77.699219 0.00390625 L 77.699219 60 L 0.121094 60 Z M 0.121094 0.00390625 " clip-rule="nonzero"/></clipPath><clipPath id="2b57378a25"><path d="M 77.699219 30.003906 L 0.261719 60.003906 L 0.261719 0.00390625 Z M 77.699219 30.003906 " clip-rule="nonzero"/></clipPath><clipPath id="75125d2901"><rect x="0" width="78" y="0" height="60"/></clipPath><clipPath id="b938bffa64"><rect x="0" width="78" y="0" height="120"/></clipPath></defs><g transform="matrix(1, 0, 0, 1, 21, 0.000000000000001943)"><g clip-path="url(#b938bffa64)"><g clip-path="url(#df7818f5e5)"><g clip-path="url(#9bbe640c45)"><g transform="matrix(1, 0, 0, 1, 0, 0.000000000000001943)"><g clip-path="url(#7a5e761753)"><g clip-path="url(#d31fd435ba)"><g clip-path="url(#069b00db3e)"><path fill="#f9f9f9" d="M 77.699219 0.00390625 L 77.699219 60.003906 L 0.355469 60.003906 L 0.355469 0.00390625 Z M 77.699219 0.00390625 " fill-opacity="1" fill-rule="nonzero"/></g></g></g></g></g></g><g clip-path="url(#e133933ffc)"><g clip-path="url(#039d14d2c7)"><g transform="matrix(1, 0, 0, 1, 0, 60)"><g clip-path="url(#75125d2901)"><g clip-path="url(#1e0f8e20f9)"><g clip-path="url(#2b57378a25)"><path fill="#f9f9f9" d="M 77.699219 0.00390625 L 77.699219 60.003906 L 0.355469 60.003906 L 0.355469 0.00390625 Z M 77.699219 0.00390625 " fill-opacity="1" fill-rule="nonzero"/></g></g></g></g></g></g></g></g></svg>