<svg xmlns="http://www.w3.org/2000/svg" xmlns:xlink="http://www.w3.org/1999/xlink" width="160" zoomAndPan="magnify" viewBox="0 0 120 119.999999" height="160" preserveAspectRatio="xMidYMid meet" version="1.0"><defs><g/><clipPath id="94c25a8aeb"><path d="M 0 0.441406 L 26.527344 0.441406 L 26.527344 21 L 0 21 Z M 0 0.441406 " clip-rule="nonzero"/></clipPath><clipPath id="4fa259d1bf"><path d="M 26.527344 10.722656 L -0.0078125 21 L -0.0078125 0.441406 Z M 26.527344 10.722656 " clip-rule="nonzero"/></clipPath><clipPath id="b2338d9fb9"><path d="M 0 0.441406 L 26.527344 0.441406 L 26.527344 21 L 0 21 Z M 0 0.441406 " clip-rule="nonzero"/></clipPath><clipPath id="9a8b6bd820"><path d="M 26.527344 10.722656 L -0.0078125 21 L -0.0078125 0.441406 Z M 26.527344 10.722656 " clip-rule="nonzero"/></clipPath><clipPath id="e97701023f"><rect x="0" width="27" y="0" height="21"/></clipPath><clipPath id="d34e657c8f"><path d="M 0 21 L 26.527344 21 L 26.527344 41.558594 L 0 41.558594 Z M 0 21 " clip-rule="nonzero"/></clipPath><clipPath id="0a4a930b18"><path d="M 26.527344 31.28125 L -0.0078125 41.558594 L -0.0078125 21 Z M 26.527344 31.28125 " clip-rule="nonzero"/></clipPath><clipPath id="5f21810bca"><path d="M 0 0 L 26.527344 0 L 26.527344 20.558594 L 0 20.558594 Z M 0 0 " clip-rule="nonzero"/></clipPath><clipPath id="2d0ef36eca"><path d="M 26.527344 10.28125 L -0.0078125 20.558594 L -0.0078125 0 Z M 26.527344 10.28125 " clip-rule="nonzero"/></clipPath><clipPath id="a7a6b71e23"><rect x="0" width="27" y="0" height="21"/></clipPath><clipPath id="7ea6599721"><rect x="0" width="52" y="0" height="37"/></clipPath><clipPath id="44fc3eec1a"><path d="M 79 16 L 116.878906 16 L 116.878906 35 L 79 35 Z M 79 16 " clip-rule="nonzero"/></clipPath><clipPath id="dff4bddf12"><rect x="0" width="38" y="0" height="19"/></clipPath><clipPath id="11f439f7d5"><rect x="0" width="117" y="0" height="42"/></clipPath></defs><g transform="matrix(1, 0, 0, 1, 0, 39)"><g clip-path="url(#11f439f7d5)"><g clip-path="url(#94c25a8aeb)"><g clip-path="url(#4fa259d1bf)"><g transform="matrix(1, 0, 0, 1, 0, 0.000000000000007105)"><g clip-path="url(#e97701023f)"><g clip-path="url(#b2338d9fb9)"><g clip-path="url(#9a8b6bd820)"><path fill="#f9f9f9" d="M 26.527344 0.441406 L 26.527344 21 L 0.0273438 21 L 0.0273438 0.441406 Z M 26.527344 0.441406 " fill-opacity="1" fill-rule="nonzero"/></g></g></g></g></g></g><g clip-path="url(#d34e657c8f)"><g clip-path="url(#0a4a930b18)"><g transform="matrix(1, 0, 0, 1, 0, 21)"><g clip-path="url(#a7a6b71e23)"><g clip-path="url(#5f21810bca)"><g clip-path="url(#2d0ef36eca)"><path fill="#f9f9f9" d="M 26.527344 0 L 26.527344 20.558594 L 0.0273438 20.558594 L 0.0273438 0 Z M 26.527344 0 " fill-opacity="1" fill-rule="nonzero"/></g></g></g></g></g></g><g transform="matrix(1, 0, 0, 1, 30, 2)"><g clip-path="url(#7ea6599721)"><g fill="#ffffff" fill-opacity="1"><g transform="translate(0.53833, 28.640863)"><g><path d="M 2.671875 0 C 2.460938 0 2.359375 -0.0976562 2.359375 -0.296875 L 2.359375 -18.640625 C 2.359375 -18.835938 2.460938 -18.9375 2.671875 -18.9375 L 9.140625 -18.9375 C 11.296875 -18.9375 12.976562 -18.34375 14.1875 -17.15625 C 15.40625 -15.976562 16.015625 -14.300781 16.015625 -12.125 L 16.015625 -6.703125 C 16.015625 -4.566406 15.40625 -2.914062 14.1875 -1.75 C 12.976562 -0.582031 11.296875 0 9.140625 0 Z M 4.640625 -2.125 L 9.109375 -2.125 C 10.578125 -2.125 11.707031 -2.503906 12.5 -3.265625 C 13.289062 -4.035156 13.6875 -5.179688 13.6875 -6.703125 L 13.6875 -12.125 C 13.6875 -13.695312 13.289062 -14.878906 12.5 -15.671875 C 11.707031 -16.472656 10.578125 -16.875 9.109375 -16.875 L 4.640625 -16.875 Z M 4.640625 -2.125 "/></g></g></g><g fill="#ffffff" fill-opacity="1"><g transform="translate(18.283274, 28.640863)"><g><path d="M 4.640625 -2.0625 L 13.75 -2.0625 C 13.9375 -2.0625 14.03125 -1.96875 14.03125 -1.78125 L 14.03125 -0.296875 C 14.03125 -0.0976562 13.9375 0 13.75 0 L 2.671875 0 C 2.460938 0 2.359375 -0.0976562 2.359375 -0.296875 L 2.359375 -18.640625 C 2.359375 -18.835938 2.460938 -18.9375 2.671875 -18.9375 L 13.375 -18.9375 C 13.570312 -18.9375 13.671875 -18.835938 13.671875 -18.640625 L 13.671875 -17.15625 C 13.671875 -16.96875 13.570312 -16.875 13.375 -16.875 L 4.640625 -16.875 L 4.640625 -10.671875 L 12.765625 -10.671875 C 12.960938 -10.671875 13.0625 -10.566406 13.0625 -10.359375 L 13.0625 -8.90625 C 13.0625 -8.6875 12.960938 -8.578125 12.765625 -8.578125 L 4.640625 -8.578125 Z M 4.640625 -2.0625 "/></g></g></g><g fill="#ffffff" fill-opacity="1"><g transform="translate(33.618083, 28.640863)"><g><path d="M 7.203125 0 C 7.023438 0 6.910156 -0.078125 6.859375 -0.234375 L 0.1875 -18.59375 C 0.09375 -18.820312 0.171875 -18.9375 0.421875 -18.9375 L 2.21875 -18.9375 C 2.394531 -18.9375 2.507812 -18.859375 2.5625 -18.703125 L 6.40625 -7.859375 C 6.726562 -6.984375 7.046875 -6.085938 7.359375 -5.171875 C 7.679688 -4.265625 7.992188 -3.367188 8.296875 -2.484375 L 8.375 -2.484375 C 8.6875 -3.367188 8.992188 -4.253906 9.296875 -5.140625 C 9.609375 -6.035156 9.914062 -6.925781 10.21875 -7.8125 L 14.09375 -18.703125 C 14.144531 -18.859375 14.257812 -18.9375 14.4375 -18.9375 L 16.234375 -18.9375 C 16.441406 -18.9375 16.519531 -18.820312 16.46875 -18.59375 L 9.796875 -0.234375 C 9.742188 -0.078125 9.628906 0 9.453125 0 Z M 7.203125 0 "/></g></g></g></g></g><g clip-path="url(#44fc3eec1a)"><g transform="matrix(1, 0, 0, 1, 79, 16)"><g clip-path="url(#dff4bddf12)"><g fill="#ffffff" fill-opacity="1"><g transform="translate(1.209256, 14.044643)"><g><path d="M 2.171875 -0.671875 C 2.171875 -0.453125 2.097656 -0.273438 1.953125 -0.140625 C 1.816406 -0.00390625 1.640625 0.0625 1.421875 0.0625 C 1.203125 0.0625 1.023438 -0.00390625 0.890625 -0.140625 C 0.753906 -0.273438 0.6875 -0.453125 0.6875 -0.671875 C 0.6875 -0.898438 0.753906 -1.082031 0.890625 -1.21875 C 1.023438 -1.351562 1.203125 -1.421875 1.421875 -1.421875 C 1.640625 -1.421875 1.816406 -1.351562 1.953125 -1.21875 C 2.097656 -1.082031 2.171875 -0.898438 2.171875 -0.671875 Z M 2.171875 -0.671875 "/></g></g></g><g fill="#ffffff" fill-opacity="1"><g transform="translate(4.050243, 14.044643)"><g><path d="M 2.015625 -6.6875 C 2.253906 -6.8125 2.519531 -6.910156 2.8125 -6.984375 C 3.101562 -7.066406 3.40625 -7.109375 3.71875 -7.109375 C 4.289062 -7.109375 4.796875 -6.992188 5.234375 -6.765625 C 5.671875 -6.546875 6.015625 -6.222656 6.265625 -5.796875 C 6.515625 -5.367188 6.640625 -4.851562 6.640625 -4.25 L 6.640625 -2.765625 C 6.640625 -2.085938 6.507812 -1.53125 6.25 -1.09375 C 6 -0.664062 5.644531 -0.351562 5.1875 -0.15625 C 4.738281 0.0390625 4.222656 0.140625 3.640625 0.140625 C 3.203125 0.140625 2.753906 0.0976562 2.296875 0.015625 C 1.835938 -0.0664062 1.414062 -0.179688 1.03125 -0.328125 C 0.957031 -0.359375 0.921875 -0.414062 0.921875 -0.5 L 0.921875 -9.484375 C 0.921875 -9.578125 0.96875 -9.625 1.0625 -9.625 L 1.859375 -9.625 C 1.960938 -9.625 2.015625 -9.578125 2.015625 -9.484375 Z M 3.609375 -0.828125 C 4.210938 -0.828125 4.679688 -0.972656 5.015625 -1.265625 C 5.347656 -1.554688 5.515625 -2.054688 5.515625 -2.765625 L 5.515625 -4.25 C 5.515625 -4.894531 5.347656 -5.367188 5.015625 -5.671875 C 4.691406 -5.972656 4.226562 -6.125 3.625 -6.125 C 3.320312 -6.125 3.03125 -6.082031 2.75 -6 C 2.476562 -5.914062 2.234375 -5.796875 2.015625 -5.640625 L 2.015625 -1.09375 C 2.222656 -1.007812 2.46875 -0.941406 2.75 -0.890625 C 3.03125 -0.847656 3.316406 -0.828125 3.609375 -0.828125 Z M 3.609375 -0.828125 "/></g></g></g><g fill="#ffffff" fill-opacity="1"><g transform="translate(11.361399, 14.044643)"><g><path d="M 1.0625 0 C 0.96875 0 0.921875 -0.046875 0.921875 -0.140625 L 0.921875 -6.4375 C 0.921875 -6.53125 0.957031 -6.585938 1.03125 -6.609375 C 1.363281 -6.773438 1.726562 -6.898438 2.125 -6.984375 C 2.53125 -7.066406 2.929688 -7.109375 3.328125 -7.109375 C 3.546875 -7.109375 3.769531 -7.097656 4 -7.078125 C 4.226562 -7.066406 4.46875 -7.039062 4.71875 -7 C 4.800781 -6.988281 4.84375 -6.929688 4.84375 -6.828125 L 4.84375 -6.171875 C 4.84375 -6.054688 4.789062 -6.007812 4.6875 -6.03125 C 4.5 -6.0625 4.300781 -6.082031 4.09375 -6.09375 C 3.882812 -6.113281 3.675781 -6.125 3.46875 -6.125 C 3.195312 -6.125 2.929688 -6.097656 2.671875 -6.046875 C 2.421875 -5.992188 2.203125 -5.929688 2.015625 -5.859375 L 2.015625 -0.140625 C 2.015625 -0.046875 1.960938 0 1.859375 0 Z M 1.0625 0 "/></g></g></g><g fill="#ffffff" fill-opacity="1"><g transform="translate(16.275826, 14.044643)"><g><path d="M 0.828125 -6.40625 C 1.140625 -6.625 1.507812 -6.796875 1.9375 -6.921875 C 2.375 -7.046875 2.847656 -7.109375 3.359375 -7.109375 C 4.191406 -7.109375 4.847656 -6.890625 5.328125 -6.453125 C 5.804688 -6.023438 6.046875 -5.375 6.046875 -4.5 L 6.046875 -0.453125 C 6.046875 -0.367188 6.003906 -0.3125 5.921875 -0.28125 C 5.609375 -0.164062 5.222656 -0.0664062 4.765625 0.015625 C 4.304688 0.0976562 3.828125 0.140625 3.328125 0.140625 C 2.828125 0.140625 2.351562 0.0703125 1.90625 -0.0625 C 1.46875 -0.207031 1.113281 -0.441406 0.84375 -0.765625 C 0.570312 -1.097656 0.4375 -1.53125 0.4375 -2.0625 C 0.4375 -2.78125 0.703125 -3.316406 1.234375 -3.671875 C 1.765625 -4.023438 2.460938 -4.203125 3.328125 -4.203125 C 3.609375 -4.203125 3.890625 -4.1875 4.171875 -4.15625 C 4.460938 -4.125 4.71875 -4.085938 4.9375 -4.046875 L 4.9375 -4.46875 C 4.9375 -5.019531 4.8125 -5.429688 4.5625 -5.703125 C 4.320312 -5.972656 3.910156 -6.109375 3.328125 -6.109375 C 2.953125 -6.109375 2.597656 -6.0625 2.265625 -5.96875 C 1.929688 -5.875 1.648438 -5.753906 1.421875 -5.609375 C 1.335938 -5.554688 1.269531 -5.570312 1.21875 -5.65625 L 0.828125 -6.21875 C 0.773438 -6.300781 0.773438 -6.363281 0.828125 -6.40625 Z M 1.53125 -2.0625 C 1.53125 -1.65625 1.695312 -1.347656 2.03125 -1.140625 C 2.375 -0.929688 2.804688 -0.828125 3.328125 -0.828125 C 3.628906 -0.828125 3.921875 -0.851562 4.203125 -0.90625 C 4.492188 -0.957031 4.738281 -1.015625 4.9375 -1.078125 L 4.9375 -3.09375 C 4.726562 -3.144531 4.476562 -3.1875 4.1875 -3.21875 C 3.894531 -3.25 3.609375 -3.265625 3.328125 -3.265625 C 2.710938 -3.265625 2.257812 -3.15625 1.96875 -2.9375 C 1.675781 -2.71875 1.53125 -2.425781 1.53125 -2.0625 Z M 1.53125 -2.0625 "/></g></g></g><g fill="#ffffff" fill-opacity="1"><g transform="translate(23.156122, 14.044643)"><g><path d="M 6.390625 -0.1875 C 6.390625 0.6875 6.164062 1.382812 5.71875 1.90625 C 5.28125 2.425781 4.5625 2.6875 3.5625 2.6875 C 3.019531 2.6875 2.539062 2.601562 2.125 2.4375 C 1.707031 2.28125 1.316406 2.054688 0.953125 1.765625 C 0.890625 1.710938 0.882812 1.640625 0.9375 1.546875 L 1.328125 0.96875 C 1.390625 0.875 1.460938 0.863281 1.546875 0.9375 C 1.828125 1.164062 2.128906 1.347656 2.453125 1.484375 C 2.785156 1.628906 3.15625 1.703125 3.5625 1.703125 C 4.164062 1.703125 4.609375 1.539062 4.890625 1.21875 C 5.171875 0.894531 5.304688 0.394531 5.296875 -0.28125 L 5.296875 -0.609375 C 5.046875 -0.492188 4.765625 -0.398438 4.453125 -0.328125 C 4.148438 -0.253906 3.851562 -0.21875 3.5625 -0.21875 C 3.03125 -0.21875 2.546875 -0.316406 2.109375 -0.515625 C 1.671875 -0.710938 1.320312 -1.015625 1.0625 -1.421875 C 0.800781 -1.828125 0.671875 -2.34375 0.671875 -2.96875 L 0.671875 -4.3125 C 0.671875 -4.988281 0.804688 -5.53125 1.078125 -5.9375 C 1.347656 -6.351562 1.710938 -6.648438 2.171875 -6.828125 C 2.628906 -7.015625 3.132812 -7.109375 3.6875 -7.109375 C 4.164062 -7.109375 4.628906 -7.054688 5.078125 -6.953125 C 5.523438 -6.859375 5.925781 -6.738281 6.28125 -6.59375 C 6.351562 -6.5625 6.390625 -6.5 6.390625 -6.40625 Z M 1.796875 -2.96875 C 1.796875 -2.320312 1.972656 -1.867188 2.328125 -1.609375 C 2.679688 -1.347656 3.125 -1.21875 3.65625 -1.21875 C 3.957031 -1.21875 4.257812 -1.25 4.5625 -1.3125 C 4.863281 -1.382812 5.109375 -1.484375 5.296875 -1.609375 L 5.296875 -5.890625 C 5.097656 -5.960938 4.84375 -6.015625 4.53125 -6.046875 C 4.226562 -6.085938 3.953125 -6.109375 3.703125 -6.109375 C 3.128906 -6.109375 2.664062 -5.972656 2.3125 -5.703125 C 1.96875 -5.441406 1.796875 -4.976562 1.796875 -4.3125 Z M 1.796875 -2.96875 "/></g></g></g><g fill="#ffffff" fill-opacity="1"><g transform="translate(30.467278, 14.044643)"><g><path d="M 0.828125 -6.40625 C 1.140625 -6.625 1.507812 -6.796875 1.9375 -6.921875 C 2.375 -7.046875 2.847656 -7.109375 3.359375 -7.109375 C 4.191406 -7.109375 4.847656 -6.890625 5.328125 -6.453125 C 5.804688 -6.023438 6.046875 -5.375 6.046875 -4.5 L 6.046875 -0.453125 C 6.046875 -0.367188 6.003906 -0.3125 5.921875 -0.28125 C 5.609375 -0.164062 5.222656 -0.0664062 4.765625 0.015625 C 4.304688 0.0976562 3.828125 0.140625 3.328125 0.140625 C 2.828125 0.140625 2.351562 0.0703125 1.90625 -0.0625 C 1.46875 -0.207031 1.113281 -0.441406 0.84375 -0.765625 C 0.570312 -1.097656 0.4375 -1.53125 0.4375 -2.0625 C 0.4375 -2.78125 0.703125 -3.316406 1.234375 -3.671875 C 1.765625 -4.023438 2.460938 -4.203125 3.328125 -4.203125 C 3.609375 -4.203125 3.890625 -4.1875 4.171875 -4.15625 C 4.460938 -4.125 4.71875 -4.085938 4.9375 -4.046875 L 4.9375 -4.46875 C 4.9375 -5.019531 4.8125 -5.429688 4.5625 -5.703125 C 4.320312 -5.972656 3.910156 -6.109375 3.328125 -6.109375 C 2.953125 -6.109375 2.597656 -6.0625 2.265625 -5.96875 C 1.929688 -5.875 1.648438 -5.753906 1.421875 -5.609375 C 1.335938 -5.554688 1.269531 -5.570312 1.21875 -5.65625 L 0.828125 -6.21875 C 0.773438 -6.300781 0.773438 -6.363281 0.828125 -6.40625 Z M 1.53125 -2.0625 C 1.53125 -1.65625 1.695312 -1.347656 2.03125 -1.140625 C 2.375 -0.929688 2.804688 -0.828125 3.328125 -0.828125 C 3.628906 -0.828125 3.921875 -0.851562 4.203125 -0.90625 C 4.492188 -0.957031 4.738281 -1.015625 4.9375 -1.078125 L 4.9375 -3.09375 C 4.726562 -3.144531 4.476562 -3.1875 4.1875 -3.21875 C 3.894531 -3.25 3.609375 -3.265625 3.328125 -3.265625 C 2.710938 -3.265625 2.257812 -3.15625 1.96875 -2.9375 C 1.675781 -2.71875 1.53125 -2.425781 1.53125 -2.0625 Z M 1.53125 -2.0625 "/></g></g></g></g></g></g></g></g></svg>